<?xml version="1.0" encoding="utf-8"?>
<!-- Generator: Adobe Illustrator 24.0.2, SVG Export Plug-In . SVG Version: 6.00 Build 0)  -->
<svg version="1.1" id="Calque_1" xmlns="http://www.w3.org/2000/svg" xmlns:xlink="http://www.w3.org/1999/xlink" x="0px" y="0px"
	 viewBox="0 0 458.1 458.1" style="enable-background:new 0 0 458.1 458.1;" xml:space="preserve">
<style type="text/css">
	.st0{fill:#DFCD92;}
</style>
<g id="chnN7r_1_">
	<g>
		<path class="st0" d="M111.79,228.48c0.01-43.95-0.05-87.9,0.04-131.85c0.04-17.5,12.56-28.4,29.68-26.13
			c43.94,5.83,87.95,11.23,131.79,17.76c15.08,2.25,30.21,4.05,45.29,6.28c12.42,1.84,21.16,13.37,21.68,28.83
			c0.37,10.84,0.16,21.69,0.07,32.54c-0.03,3.85,0.06,7.36,4.9,8.2c3.33,0.58,3.44,3.08,3.44,5.7c-0.02,5.28,0.04,10.57,0.02,15.85
			c-0.01,2.21,0.19,5.39-2.35,5.64c-7.4,0.72-5.92,5.91-5.93,10.44c-0.05,18.36-0.08,36.72-0.08,55.07c0,3.78-1,8.28,5.14,8.38
			c0.51,0.01,1.12,0.27,1.52,0.61c3.41,2.83,2.24,26.28-1.86,27.89c-4.98,1.95-4.61,5.43-4.75,9.38c-0.43,12.2,0.88,24.44-1.1,36.62
			c-2.66,16.38-11.34,21.28-21.55,22.81c-28.78,4.3-57.66,7.96-86.48,12.06c-29.08,4.13-58.18,8.15-87.16,12.88
			c-17.93,2.92-32.28-8.14-32.3-26.27C111.74,316.93,111.78,272.7,111.79,228.48z M325.81,228.7c0-34.76-0.11-69.52,0.09-104.28
			c0.04-7.46-2.73-11.38-10.31-12.25c-17.9-2.05-35.76-4.4-53.63-6.62c-26.65-3.3-53.31-6.57-79.96-9.9
			c-12.38-1.55-24.71-3.55-37.13-4.69c-9.46-0.87-12.98,2.49-12.98,11.72c-0.05,84.26-0.02,168.53,0.06,252.79
			c0.01,8.17,3.06,11.35,11.14,10.76c11.88-0.87,23.74-2.25,35.57-3.76c45.09-5.77,90.17-11.72,135.26-17.51
			c10.54-1.35,11.91-2.69,11.91-13.64C325.82,297.11,325.82,262.91,325.81,228.7z"/>
		<path class="st0" d="M78.81,228.56c0.01-28.08,0.08-56.15-0.03-84.23c-0.04-11.04,3.38-20.17,13.37-25.82
			c3.46-1.95,8.59-5.22,11.06-1.59c2.94,4.33,3.71,11.42-1.09,15.31c-4.87,3.95-5.69,8.24-5.68,13.75
			c0.09,55.04,0.07,110.08,0.03,165.12c0,5.4,0.3,10.11,5.52,13.85c5.07,3.63,3.97,10.51,1.73,14.44
			c-2.38,4.17-7.78,1.72-11.77-0.61c-9.36-5.46-13.14-13.87-13.15-24.33C78.8,285.83,78.81,257.19,78.81,228.56z"/>
		<path class="st0" d="M230.37,303.51c0-6.67,0-13.35,0-20.02c0-1.67,0.01-3.34-0.05-5.01c-0.04-0.98-20.79-18.19-22.18-18.01
			c-5.22,0.66-8.73,4.57-12.72,7.41c-2.88,2.05-0.02,3.91,1.35,5.35c5.61,5.91,12.18,10.46,19.68,13.72
			c4.79,2.08,8.18,15.49,4.96,19.41c-1.82,2.22-4.02,1.04-6.09,0.33c-13.13-4.49-24.83-11.34-33.64-22.19
			c-3.47-4.26-6.07-4.7-10.07-1.12c-2.25,2.01-5.09,3.35-7.64,5.02c-7.95,5.21-13.12,5.16-16.73-0.16
			c-3.8-5.61-1.78-10.74,6.49-16.12c13.28-8.62,26.51-17.32,39.96-25.66c3.81-2.36,5.46-4.32,4.32-9.22
			c-1.17-5.02-0.96-10.5-0.55-15.72c0.54-6.8-3.85-13.38-10.6-14.72c-4.4-0.87-4.23,2.75-4.76,5.15c-2,9.01-2.24,18.17-1.47,27.35
			c0.33,3.92-10.29,13.93-14.03,12.99c-2.67-0.67-2.7-3.16-3.12-5.32c-2.8-14.41-3.09-28.89,1.89-42.75
			c2.91-8.09,0.95-12.5-6.5-15.7c-3.03-1.3-6.02-3.06-8.5-5.21c-4.58-3.98-7.15-8.97-2.93-14.62c3.82-5.13,8.42-5.15,13.76-1.48
			c13.27,9.11,26.85,17.77,40.19,26.8c4.2,2.84,7.49,3.79,11.34-0.79c3.23-3.85,8.15-5.62,12.8-7.49c2.65-1.07,4.57-2.31,4.93-5.83
			c1.32-12.87-0.41-14.19-12.92-9.61c-3.69,1.35-7.29,2.77-10.46,5.05c-8.53,6.13-13.18,5.65-21.04-1.78
			c-4.02-3.8-0.12-5.44,1.78-7.17c9.87-8.95,21.43-14.81,34.54-17.14c6.19-1.1,8.57-4.14,8.05-10.24
			c-0.33-3.87,0.06-7.79-0.09-11.67c-0.17-4.53,2.55-6.73,6.36-7.46c3.96-0.76,7.06,1.09,8.63,4.9c1.28,3.12,1.61,6.41,1.59,9.8
			c-0.07,14.74,0.08,29.48-0.06,44.22c-0.04,4.32,0.59,7.49,5.5,8.77c4.99,1.3,8.39,5.29,12.09,8.59c2.13,1.89,3.91,2.49,6.65,1.23
			c8.48-3.88,9.06-6.37,2.44-13c-3.33-3.34-6.28-7.37-10.74-9.12c-7.71-3.02-9.68-8.28-9.2-16.24c0.45-7.44,3.13-6.89,8.15-4.28
			c10.23,5.32,19.62,11.6,25.76,21.7c3.34,5.48,6.73,6.99,12.56,2.59c4.39-3.31,10.16-9.53,15.36-1.22
			c4.7,7.52-0.81,11.32-6.73,15.01c-9.88,6.16-19.4,12.9-29.07,19.38c-0.46,0.31-0.99,0.52-1.46,0.81
			c-3.23,2.01-3.56,5.34-2.19,8.09c4.15,8.33-6.88,20.65,7.12,26.35c3.88,1.58,5.05-0.11,5.67-3.31c1.49-7.65,2.62-15.3,1.11-23.13
			c-0.92-4.77,6.11-13.06,10.87-13.05c3.49,0.01,2.59,2.87,3.04,4.85c3.05,13.34,2.01,26.59-2.03,39.45
			c-1.61,5.11-0.45,7.67,3.84,10.1c3.11,1.76,5.98,4.06,8.64,6.46c4.11,3.7,3.27,7.92,0.52,12c-3.09,4.6-6.66,2.63-10.1,0.5
			c-9.9-6.16-19.91-12.15-29.58-18.64c-5.03-3.38-8.99-4.76-13.46,0.87c-1.97,2.49-5.14,4.74-8.17,5.53
			c-6.56,1.7-6.71,6.13-6.59,11.42c0.2,9.03,0.44,9.24,8.62,5.75c5.73-2.45,10.49-6.13,14.97-10.39c3.82-3.63,10.99-2.21,15.01,2.78
			c3.8,4.72-1.44,6.17-3.46,8.5c-7.83,9.03-17.64,15.25-29.03,18.75c-4.83,1.48-6.65,4.14-6.17,9.13c0.4,4.13,0.27,8.35-0.01,12.5
			c-0.41,6.11-3.75,10.22-9.98,10c-5.85-0.21-6.46-5.15-6.47-9.86c-0.02-8.07,0-16.13,0-24.2
			C230.34,303.51,230.36,303.51,230.37,303.51z M260.65,228.97c-0.08-15.05-10.08-26.52-23.03-26.41
			c-13.04,0.12-23.65,11.91-23.61,26.27c0.04,14.49,10.53,25.82,23.93,25.82C250.7,254.65,260.73,243.32,260.65,228.97z"/>
	</g>
</g>
</svg>
